# xmcd
#
# Track frame offsets: 
#        150
#        17655
#        40887
#        60917
#        76190
#        100075
#        111007
#        142677
#        155405
#        176662
#        192887
#        217145
#
# Disc length: 3614 seconds
#
# Revision: 4
# Processed by: cddbd v1.5.2PL0 Copyright (c) Steve Scherf et al.
# Submitted via: ExactAudioCopy v1.0b3
#
DISCID=910e1c0c
DTITLE=Ford Blues Band - Fords and Friends
DYEAR=1996
DGENRE=Blues
TTITLE0=Tell Me Mamma
TTITLE1=Another Fine Day
TTITLE2=Happy Anniversary Baby
TTITLE3=I'M In Love
TTITLE4=The Sign
TTITLE5=Baby Please
TTITLE6=Sahara Moon
TTITLE7=Hey Sister
TTITLE8=Tell Old Bill
TTITLE9=Little Baby
TTITLE10=That Happy Look In Your Eye
TTITLE11=Luther'S Lament
EXTD=The Ford Blues Band: Patric Ford, Andy Just, Scotty Johnson, Dewa
EXTD=yne Pate, John Wedemeyer ID3G: 0
EXTT0=Little Walter Jacobs - Arc Music
EXTT1=Patric Ford - Blues Music
EXTT2=Patric Ford - Blues Music - Reconsider Music
EXTT3=Patric Ford - Blues Music
EXTT4=Mark Ford - Blues Music
EXTT5=Patric Ford - Blues Music
EXTT6=Robben Ford - Tamale Music
EXTT7=Patric Ford - Blues Music
EXTT8=Traditional
EXTT9=W. Dixon
EXTT10=Dewayne Pate - Blues Music
EXTT11=Luther Tucker - Patric Ford - Blues Music
PLAYORDER=
